:SAMPLES-PER-SECOND 30
:FULLY-SPECIFIED
:DEGREES
1398
root  86.5769 38.608 3.88791 -179.249 9.05908 178.766
RightUpLeg  7.92946 -19.8501 -5.84188
RightLeg  10.7283 -28.4841 2.15086
RightFoot  -13.2627 0.0731555 9.48422
RightToes  9.54606e-009 0 -3.6325e-017
Spine  -3.25442 2.32149 5.12093
Spine1  8.27862 2.53445 -1.19816
HEad  -23.9186 35.4349 -26.4693
LeftShoulder1  -1.07186 6.28563 -32.3442
LeftArm  8.55071 20.0247 -38.256
LeftForeArm  18.0371 -22.0545 -4.26993
LeftHand  -0.056773 10.3521 -0.0578208
RightShoulder  -1.27728 -6.88492 31.2719
RightArm  15.8898 -1.33695 38.9098
RightForeArm  17.2525 8.62669 7.33929
RightHand  -0.0545858 2.77784 -0.99391
LeftUpLeg  -10.8113 -0.849448 -8.73275
LeftLeg  11.9089 50.0542 9.83893
LeftFoot  -2.72943 -0.709061 9.6208
LeftToes  -8.26734e-010 9.74065e-011 1.64617e-011
1399
root  86.885 38.5331 3.47156 178.218 6.45767 177.363
RightUpLeg  10.6617 -35.8572 -11.3943
RightLeg  16.6994 -13.3105 -2.15348
RightFoot  -14.2953 0.253653 13.6885
RightToes  9.54606e-009 0 -3.6325e-017
Spine  -0.674897 2.90357 2.01067
Spine1  8.0008 3.26798 -1.07314
HEad  -23.4427 34.4172 -25.4356
LeftShoulder1  -1.13456 6.33296 -33.9084
LeftArm  7.7945 18.237 -36.6972
LeftForeArm  18.061 -19.6112 -5.05263
LeftHand  0.00329098 11.3884 1.27949
RightShoulder  -1.28731 -6.93472 31.0183
RightArm  13.3281 -1.82419 42.0944
RightForeArm  18.87 8.57356 6.59877
RightHand  -0.0248516 3.1728 -0.571151
LeftUpLeg  -7.59682 -1.26428 -10.4106
LeftLeg  12.0617 48.5433 10.2514
LeftFoot  -2.78929 -0.69976 9.56255
LeftToes  -8.26734e-010 9.74065e-011 1.64617e-011
1400
root  87.1485 38.4563 3.12595 177.449 1.67767 176.905
RightUpLeg  10.3078 -41.7822 -14.1181
RightLeg  24.1228 -9.06825 -4.98344
RightFoot  -13.4039 0.221754 19.0523
RightToes  9.54606e-009 0 -3.6325e-017
Spine  1.94728 2.51815 0.982252
Spine1  5.53717 3.15236 -2.81062
HEad  -21.3209 34.2129 -22.7023
LeftShoulder1  -1.14796 6.36723 -33.8963
LeftArm  3.14241 18.0892 -35.9418
LeftForeArm  21.2201 -17.8011 -5.48897
LeftHand  -0.0566634 11.6094 0.128869
RightShoulder  -1.27364 -6.92047 30.7758
RightArm  12.6796 -3.43285 45.0069
RightForeArm  18.5094 10.0079 6.15934
RightHand  -0.00256577 3.39751 -0.277946
LeftUpLeg  -6.00133 -0.656038 -11.0209
LeftLeg  11.3711 43.5261 8.91945
LeftFoot  -3.49907 -0.652936 9.80824
LeftToes  -8.26734e-010 9.74065e-011 1.64617e-011
1401
root  87.2707 38.4108 2.74514 177.709 -1.81064 176.706
RightUpLeg  4.93714 -39.0014 -13.6629
RightLeg  34.5738 -8.61886 -6.56309
RightFoot  -9.13303 -0.320394 18.845
RightToes  9.54606e-009 0 -3.6325e-017
Spine  2.76366 2.7165 1.98469
Spine1  4.44548 3.8605 -5.7165
HEad  -18.8328 33.661 -20.207
LeftShoulder1  -1.09875 6.31628 -32.8673
LeftArm  -1.25122 17.0907 -36.6295
LeftForeArm  22.2407 -14.7564 -6.36815
LeftHand  -0.0755345 11.4299 -0.209503
RightShoulder  -1.27804 -6.94797 30.6033
RightArm  14.9946 -4.3012 46.6866
RightForeArm  15.5856 13.0444 5.89512
RightHand  -0.00290712 3.39115 -0.260782
LeftUpLeg  -5.43319 -0.346878 -11.4189
LeftLeg  10.9269 40.0098 8.19195
LeftFoot  -4.00497 -0.622064 10.0619
LeftToes  -8.26734e-010 9.74065e-011 1.64617e-011
1402
root  87.4198 38.4024 2.37214 177.634 -5.63052 176.443
RightUpLeg  -0.793724 -34.9508 -13.1881
RightLeg  44.821 -5.91145 -6.52241
RightFoot  0.624529 -0.601021 6.06808
RightToes  9.54606e-009 0 -3.6325e-017
Spine  4.24617 2.78742 2.23274
Spine1  3.18513 4.24623 -7.50193
HEad  -18.2877 32.3061 -19.5171
LeftShoulder1  -1.01654 6.18716 -31.7154
LeftArm  -4.41221 16.8973 -37.7327
LeftForeArm  22.805 -13.8191 -6.12093
LeftHand  -0.383178 11.2449 -1.5964
RightShoulder  -1.32375 -7.00826 31.277
RightArm  20.6321 -4.36574 46.7256
RightForeArm  10.6624 17.4285 5.33122
RightHand  -0.095471 4.09113 -1.46673
LeftUpLeg  -4.71443 -1.0196 -12.0055
LeftLeg  11.3418 37.2142 8.48835
LeftFoot  -4.50562 -0.561973 9.77924
LeftToes  -8.26734e-010 9.74065e-011 1.64617e-011
1403
root  87.6623 38.2907 1.99905 177.258 -9.73068 176.165
RightUpLeg  -4.84645 -29.8496 -12.586
RightLeg  52.0187 -1.76251 -2.74381
RightFoot  6.69247 0.480125 -3.1407
RightToes  9.54606e-009 0 -3.6325e-017
Spine  5.93843 2.73431 1.12798
Spine1  2.52012 4.08792 -7.72418
HEad  -19.2389 30.0463 -20.2938
LeftShoulder1  -1.07365 6.34078 -31.6685
LeftArm  -5.22688 16.4295 -37.5874
LeftForeArm  13.5303 -14.4803 -5.96629
LeftHand  0.330846 6.78148 17.6862
RightShoulder  -1.27358 -6.85939 31.4537
RightArm  25.0517 -3.63437 46.6485
RightForeArm  9.12009 21.4204 4.58146
RightHand  -0.0419772 5.20303 -0.76122
LeftUpLeg  -4.83567 -2.4079 -12.7791
LeftLeg  14.8302 34.3857 11.2853
LeftFoot  -5.62087 -0.365018 8.00655
LeftToes  -8.26734e-010 9.74065e-011 1.64617e-011
1404
root  87.8996 38.2375 1.68799 177.877 -14.1483 175.735
RightUpLeg  -8.72187 -23.9948 -11.3937
RightLeg  55.5279 3.21002 4.53279
RightFoot  4.83938 0.710021 -4.76543
RightToes  9.54606e-009 0 -3.6325e-017
Spine  6.59643 2.68447 -0.352744
Spine1  2.6563 3.86545 -7.57106
HEad  -18.9674 27.8695 -19.8247
LeftShoulder1  -1.12622 6.43914 -32.1677
LeftArm  -4.32224 14.5588 -37.4943
LeftForeArm  13.936 -14.911 -5.95167
LeftHand  -0.0721468 4.38654 15.0764
RightShoulder  -1.21299 -6.7457 30.8258
RightArm  25.689 -2.49956 46.9184
RightForeArm  10.3727 24.2935 4.60495
RightHand  -0.0710674 5.5756 -1.07254
LeftUpLeg  -4.91484 -2.14768 -12.9722
LeftLeg  14.8244 30.0708 10.3564
LeftFoot  -6.01016 -0.34709 8.20982
LeftToes  -8.26734e-010 9.74065e-011 1.64617e-011
1405
root  88.2082 38.1912 1.29614 178.619 -18.7581 175.613
RightUpLeg  -11.3617 -18.5689 -10.0732
RightLeg  55.526 5.45854 8.10033
RightFoot  3.7979 0.620425 -4.36779
RightToes  9.54606e-009 0 -3.6325e-017
Spine  7.17247 2.51266 -2.489
Spine1  2.42683 3.20461 -5.96574
HEad  -19.1471 27.0444 -19.0554
LeftShoulder1  -1.20092 6.50873 -33.7657
LeftArm  -0.824444 13.4065 -36.7082
LeftForeArm  13.3309 -16.6079 -5.90633
LeftHand  -0.0396578 9.40369 12.8758
RightShoulder  -0.936517 -6.15672 28.7815
RightArm  24.8621 -2.34324 47.8357
RightForeArm  11.0398 26.3393 5.07274
RightHand  -0.107166 5.44346 -1.46444
LeftUpLeg  -5.26398 -0.982826 -12.0879
LeftLeg  15.1325 24.5057 8.44638
LeftFoot  -7.07824 -0.275546 8.59526
LeftToes  -8.26734e-010 9.74065e-011 1.64617e-011
1406
root  88.4622 38.2997 0.832491 178.867 -23.3948 176.431
RightUpLeg  -11.6239 -14.1568 -8.79103
RightLeg  51.7281 4.01354 5.08507
RightFoot  -0.324031 -0.0593384 0.75964
RightToes  9.54606e-009 0 -3.6325e-017
Spine  7.91045 2.18686 -2.01361
Spine1  2.12833 3.00409 -6.02256
HEad  -18.7512 24.9626 -17.3473
LeftShoulder1  -1.13574 6.39592 -33.0836
LeftArm  1.94579 12.8081 -37.878
LeftForeArm  19.4686 -18.1007 -5.30972
LeftHand  -0.692793 19.2957 -7.63402
RightShoulder  -0.894477 -6.05686 28.4419
RightArm  23.4034 -2.23008 47.6964
RightForeArm  11.278 27.7833 5.39054
RightHand  -0.140755 5.49973 -1.81614
LeftUpLeg  -4.7921 0.937504 -9.82076
LeftLeg  14.1978 18.3504 5.23379
LeftFoot  -7.84888 -0.253007 9.78948
LeftToes  -8.26734e-010 9.74065e-011 1.64617e-011
1407
root  88.6831 38.6188 0.390936 179.007 -28.5793 177.394
RightUpLeg  -10.6695 -10.8039 -7.85193
RightLeg  44.879 1.57537 1.49828
RightFoot  -4.28435 -0.32755 4.48316
RightToes  9.54606e-009 0 -3.6325e-017
Spine  9.21415 1.89214 -1.89547
Spine1  1.12565 2.53783 -4.71462
HEad  -18.2432 21.4879 -16.6626
LeftShoulder1  -1.1663 6.44702 -33.4347
LeftArm  4.63409 11.7653 -38.1584
LeftForeArm  14.6066 -18.9525 -5.36757
LeftHand  -0.772094 14.2263 4.49339
RightShoulder  -0.817705 -5.9014 27.5054
RightArm  22.0046 -2.98684 47.2156
RightForeArm  9.85427 28.6593 5.67344
RightHand  -0.175184 6.17922 -2.09081
LeftUpLeg  -3.60869 2.24806 -7.70391
LeftLeg  11.6405 11.6471 2.43178
LeftFoot  -6.43025 -0.386967 9.90228
LeftToes  -8.26734e-010 9.74065e-011 1.64617e-011
1408
root  88.9028 38.8024 -0.0251526 179.813 -34.8925 177.428
RightUpLeg  -10.5568 -4.75926 -7.1598
RightLeg  37.1361 -2.68347 -2.55995
RightFoot  -6.55945 -0.133095 2.18634
RightToes  9.54606e-009 0 -3.6325e-017
Spine  10.4611 1.40409 -2.86465
Spine1  0.00893729 1.69114 -3.00921
HEad  -17.4996 17.6946 -16.1959
LeftShoulder1  -1.15469 6.40042 -33.6684
LeftArm  6.52943 11.103 -38.5951
LeftForeArm  6.43772 -19.5479 -5.58527
LeftHand  -0.798336 2.56164 28.7078
RightShoulder  -0.837667 -5.98023 27.2238
RightArm  20.1921 -4.12193 46.093
RightForeArm  8.64659 28.3838 5.67489
RightHand  -0.216666 6.63029 -2.43433
LeftUpLeg  -2.95824 2.80443 -6.66981
LeftLeg  9.43055 4.8301 0.305968
LeftFoot  -4.98739 -0.531069 10.0788
LeftToes  -8.26734e-010 9.74065e-011 1.64617e-011
1409
root  89.0847 38.9116 -0.490257 -179.366 -40.9137 177.456
RightUpLeg  -10.414 4.78461 -6.84757
RightLeg  30.6403 -4.40469 -3.01554
RightFoot  -8.08513 -0.139203 3.00951
RightToes  9.54606e-009 0 -3.6325e-017
Spine  11.2739 0.833724 -2.07803
Spine1  -0.514523 1.22164 -3.0244
HEad  -16.5428 13.968 -15.2917
LeftShoulder1  -1.12998 6.35217 -33.4781
LeftArm  8.29077 10.1883 -38.8759
LeftForeArm  16.6641 -20.9075 -4.67545
LeftHand  0.0971811 9.33403 -1.44452
RightShoulder  -0.834384 -5.95215 27.4694
RightArm  18.2735 -5.68395 44.8876
RightForeArm  7.55844 27.2195 5.4642
RightHand  -0.251998 6.6958 -2.75396
LeftUpLeg  -3.09492 2.47957 -5.98687
LeftLeg  8.83672 -0.958901 -0.30578
LeftFoot  -4.3505 -0.590798 10.0981
LeftToes  -8.26734e-010 9.74065e-011 1.64617e-011
